<svg xmlns="http://www.w3.org/2000/svg" width="62" height="62" version="1.0" viewBox="0 0 1254 1254"><path d="M619.4 27.6c-6.3 4.3-24.8 20.9-32.5 29.2-19.5 21.1-30 39.9-35.1 62.6-3.8 17-2.5 40.6 3.3 57.3 1 3.1 1.7 5.8 1.5 6-.1.2-4.5-.8-9.5-2.1-18.1-4.9-38.6-7.1-69.2-7.5-27.9-.4-30 2-26.9 31.6 6.1 59.4 29.3 96.4 74.6 119.2 20.3 10.1 44.7 15.9 71.7 16.8l15.7.6v59.9l-7.7-8.2c-19.8-21.1-46.2-36.1-77.3-44-18-4.5-28.1-5.4-59.1-5.5-28.3 0-29.8.1-31.9 2-4.6 4-5.2 7.4-4 21.8 4.3 51.4 21.5 90.6 50.9 116.4 29.1 25.5 66.4 39 112.8 40.9l16.3.7v72l-6.2-6.8c-12.5-13.6-22.8-22.3-36.6-30.8-33.3-20.6-63.3-28.8-111.2-30.4-21.3-.7-24.9-.1-29.1 4.3-1.9 2-2.4 3.8-2.7 9.5-1.1 18.3 5.4 54.5 13.2 74.9 17.4 45 49.1 75.2 96.1 91.6 19 6.7 36.2 9.7 62.2 11l14.3.7.2 62.3.3 62.3 2.9 3c2.8 2.9 3.4 3.1 10.9 3.1 7.7 0 8-.1 11.3-3.4l3.4-3.4V721.3l13.8-.7c41.5-2 72.3-10.8 98.9-28.2 24.5-15.9 41.1-34.7 53.9-60.9 9.8-20.1 16-44 18.4-71.3 2.1-22.3.7-27.5-7.9-30.3-7.9-2.6-53.1.5-74.3 5.1-22.2 4.8-51.6 17.8-69.3 30.5-9.3 6.7-23.5 19.7-29.8 27.4l-3.7 4.5v-72.1l14.8-.6c64.6-2.7 112.8-27.6 140.5-72.8 11.5-18.8 19.9-44.1 23.1-69.9 3.5-27.6 3.2-31.6-2.7-36.6l-3.1-2.6-29.6.5c-36.8.6-48.5 2.2-72 9.9-23.1 7.5-42.8 19.5-59.7 36.3L642 400.7v-59.4l15.8-.6c60.2-2.2 107.1-28.7 129.5-73.2 9.6-19.2 15.6-44.4 17.3-72.6.8-13.7-.4-17.6-6.4-20.5-3.3-1.5-6.1-1.6-26.9-1.1-26.8.7-45 2.7-61.2 6.8-6.3 1.6-11.6 2.7-11.9 2.5-.2-.2.6-3.5 1.8-7.2 11-35.6 4.1-72.2-19.7-103.9-10.2-13.6-38.5-40.9-47-45.4-3.8-2-9.7-1.3-13.9 1.5M645.3 75c21.9 23 30.9 42.5 30.9 67 .1 23.4-8.4 42.8-28.2 64.3-4.4 4.8-8.1 9.3-8.2 10 0 .6-.2 2.4-.3 4-.1 1.5-1.1 3.8-2.2 5-1.2 1.2-3.9 5.1-6.2 8.7-2.2 3.6-4.1 6-4.1 5.4 0-.7-2.7-4.9-6-9.5-3.6-5.1-6-9.4-6-11 0-2.9-1.7-5.4-10.3-14.9-11.7-12.9-20.2-28-24.4-43.4-2.4-8.9-2.3-30 .1-38.6 5.2-18.1 13.6-31 32.2-49.9l14.2-14.4 4.1 3.2c2.2 1.7 8.7 8.1 14.4 14.1M520 203.5c29.5 4.2 49.5 13 65.5 29 10.6 10.6 17 20.8 21.4 34 3.3 9.8 6.1 28.3 6.1 39.7v7.1l-14.2-.6c-66.6-2.7-106.8-35.6-117.3-96.1-.8-4.9-1.5-10.4-1.5-12.4v-3.5l14.8.7c8.1.4 19.4 1.3 25.2 2.1m255.3-1.8c.6 1.2-2.2 18.8-4.3 27.5-8.1 32.9-30.2 59.2-60.5 72.2-16.7 7.2-39 11.6-58.7 11.6H642v-8.3c.1-16.5 3.8-34.9 9.5-47.4 12.7-27.6 37.5-44.9 75-52.4 14.6-2.9 47.8-5 48.8-3.2M507.5 373.4c30.5 5.5 53.2 16.1 71.8 33.6 12.1 11.3 20.2 23.5 26 39.2 4.5 11.9 6.6 23.1 7.4 38.7l.6 12.4-14.4-.6c-65-2.9-108.4-30.7-127.2-81.7-3.7-9.9-7.1-24.3-8.2-34.5-.4-3.3-.9-6.9-1.2-7.9-.5-1.8.2-1.9 17.8-1.3 10.1.3 22.5 1.3 27.4 2.1m285.1.3c-.3 1.6-1 6.2-1.6 10.3-6.9 45.2-28.6 77.3-64.8 95.8-21.4 11-49.4 17.2-77.1 17.2h-7.4l.7-13.3c1.6-32.2 11.8-56.2 32.3-75.8 16.1-15.3 34.7-25.3 58.8-31.3 15.6-3.9 26.8-5.2 46.8-5.4l12.9-.2zM476.3 558.5c19.6 1.2 43.5 7.4 63.2 16.5 28 12.9 52.4 36.8 63.7 62.5 6.1 13.7 9.8 32.2 9.8 48.4v7.4l-13.7-.7c-46.8-2.3-79.6-15.5-105.4-42.3-16.1-16.8-26.2-35.9-32.8-61.8-2.5-9.7-5.4-29.2-4.6-30.6.4-.5 3-.7 5.8-.4 2.9.2 9.2.7 14 1m321.9 3.5c-.6 9-3.5 23.8-6.9 35-6.8 22.7-16.8 39.8-32.2 55.1-25.3 25.2-59 38.4-103.3 40.6l-14.1.6.6-12.4c1.2-25 8-45.3 21.5-64.4 18.2-25.8 53.6-46.9 91.2-54.4 12.8-2.6 32.6-4.9 40-4.7l3.5.1zM217.5 345.6c-3.8.7-10.8 3.2-15.5 5.5-10.9 5.4-22.9 17-27.8 26.9-6.9 14.1-6.4 1.3-6.6 179.5-.1 88.5.1 165 .5 170 .4 4.9 1.5 11.2 2.4 14 1 2.7 8.7 15.6 17.2 28.5s27.9 42.6 43.2 66c15.2 23.4 45.8 69.7 67.9 102.9l40.2 60.3v47.4c0 52.1.1 52.8 5.9 55.8 2.7 1.5 13.8 1.6 106.2 1.4l103.1-.3 2.9-3.3 3-3.3-.4-115.2c-.3-115-.3-115.2-2.5-125-3.4-14.6-7.7-26.9-14.2-40.2-17-34.9-42.6-61.3-80.7-83-6.4-3.7-8.9-6.2-25.8-26-36.1-42.4-71.3-83-75.1-86.7-8.9-8.4-24-15-38-16.3-6.2-.6-16.6.3-23.1 2.1l-2.3.6v-102c0-112.7.1-110.7-6.3-124.4-12.6-27.2-42.7-41.4-74.2-35.2m28.8 29.4c7.8 2.9 14.9 9.6 18.9 17.8l3.3 6.7.3 113.2.2 113.3-3.4 4.7c-8 11.4-11.6 22.7-11.6 37 0 18 5.7 31.8 19.3 47.4 4.6 5.2 22.2 25.6 39.2 45.4s39.4 45.9 49.8 58 19.9 22.5 21.1 23.2c1.1.7 4.4 1.2 7.3 1.3 4.4 0 5.8-.5 8.7-3 4.1-3.7 6-8.5 5.1-13.4-.7-3.6-24.2-31.5-92.6-110.4-13.1-15.1-24.7-29.4-25.8-31.8-5.1-10.7-5.1-22.2 0-32.3 7.1-14.2 22.9-22.1 38.1-19.1 7.6 1.4 14.4 4.8 18.9 9.2 1.9 1.8 8.2 8.9 14 15.8 49.7 58.9 79.7 93.6 82.2 94.9 35.3 19.3 55.8 37.7 71.6 63.9 9.1 15.1 16.4 34.7 19.4 51.6.9 5.3 1.2 32.5 1.2 107.6v100.5l-81.7.3-81.8.2v-42.6c0-30.3-.3-43.2-1.2-44.7-.6-1.2-24.3-37.1-52.7-79.9-28.4-42.7-56.4-85-62.2-94-5.9-8.9-20.7-31.6-33-50.3l-22.4-34v-333l2.2-4.7c2.7-5.9 10.5-14.3 15.8-17.1 9.7-5 21.2-5.6 31.8-1.7M1008.5 345.6c-10.3 2-22.3 8.3-30.5 16.1-8.8 8.2-13.6 15.5-17.4 26.3l-3.1 8.5-.3 105.3-.3 105.4-2.7-.7c-20.4-5.1-40.5-1.1-56.8 11.1-5.6 4.3-16.8 16.8-50 56-47.5 56.2-46.7 55.4-54.4 59.5-25.2 13.7-50.2 35.6-66.3 58-7.8 10.9-19.3 33.5-23.6 46.4-8.4 25.3-9.2 39.6-8.8 166.7.2 91.3.2 91.7 2.3 94.5 1.1 1.5 3.2 3.4 4.5 4 1.9 1 25.4 1.3 104.2 1.3 90.5 0 102.1-.2 104.8-1.6 5.8-3 5.9-3.7 5.9-55.8V999l30-45c35.6-53.4 88.4-133.4 109.5-166 2.7-4.1 9.6-14.7 15.3-23.5 12.2-18.6 14.7-23.6 16.2-32.5.8-4.6 1-55.1.8-172-.3-157.7-.4-165.8-2.2-171-6.5-19.5-20.9-34.7-38.8-41-11.6-4.1-25.5-5-38.3-2.4m23 27.8c2.8.7 6.8 2.2 9.1 3.4 6 3.1 13.9 12.2 16.4 19l2.2 5.7-.1 163.7c-.1 90.1-.5 164.6-.8 165.5-.4 1-8.6 13.7-18.2 28.3s-29.6 45.2-44.6 68c-14.9 22.8-45.3 68.9-67.6 102.5l-40.4 60.9-.3 43.3-.3 43.3h-164l.4-101.8c.4-110.9.2-107 6.3-126.3 7.8-24.8 21-45.8 40.3-64.1 10.5-10.1 21.3-17.8 37.1-26.9 13.2-7.5 7.1-.9 68.5-73.5 18.1-21.4 34.5-40.4 36.3-42.2 7.1-6.8 19.8-11 29.8-9.7 20.8 2.6 35.8 24.9 30.1 44.6-2.5 8.5-6.5 13.8-34.2 45.6-48.9 56-83 96.4-85.4 100.8-2.9 5.7-2.3 10.2 2.3 15.2 2.8 3.1 4 3.7 8.8 4.1 3.5.3 6.4-.1 8.1-.9 2.5-1.3 8.5-8.1 34.3-38.5 11-12.9 21.5-25.2 55.3-64.4 6.9-8 15.7-18.1 19.7-22.5 14.6-16.3 19.4-27.2 20.1-46 .4-9.3.1-13.5-1.2-18.5-2.1-8.2-5.7-15.8-10.1-21.6L986 626V515.2c0-123.3-.4-116.3 6.8-127.1 2.3-3.5 5.7-6.7 9.6-9.2 3.2-2.2 6.2-3.9 6.5-3.9.3-.1 2.9-.7 5.6-1.5 6.4-1.8 10.8-1.8 17-.1"/></svg>